HIERARCHY
ROOT root     
{
	OFFSET 0.0000 0.0000 0.0000
	CHANNELS 6 Xposition Yposition Zposition Zrotation Yrotation Xrotation
	JOINT pelvis   
	{
		OFFSET 0.0000 0.0000 0.0000
		CHANNELS 3 Zrotation Yrotation Xrotation
		JOINT thorax   
		{
			OFFSET 0.0000 23.0750 -5.0000
			CHANNELS 3 Zrotation Yrotation Xrotation
			JOINT rclavicle
			{
				OFFSET 0.0000 28.0009 0.0000
				CHANNELS 3 Zrotation Yrotation Xrotation
				JOINT rhumerus 
				{
					OFFSET -18.5725 5.5939 0.0000
					CHANNELS 3 Zrotation Yrotation Xrotation
					JOINT rradius  
					{
						OFFSET -24.8459 0.0000 0.0000
						CHANNELS 3 Zrotation Yrotation Xrotation
						JOINT rhand    
						{
							OFFSET -24.5477 0.0000 0.0000
							CHANNELS 3 Zrotation Yrotation Xrotation
							End Site
							{
								OFFSET -8.1826 0.0000 0.0000
							}
						}
					}
				}
			}
			JOINT lclavicle
			{
				OFFSET 0.0000 28.0009 0.0000
				CHANNELS 3 Zrotation Yrotation Xrotation
				JOINT lhumerus 
				{
					OFFSET 18.5725 5.5939 0.0000
					CHANNELS 3 Zrotation Yrotation Xrotation
					JOINT lradius  
					{
						OFFSET 24.8459 0.0000 0.0000
						CHANNELS 3 Zrotation Yrotation Xrotation
						JOINT lhand    
						{
							OFFSET 24.5477 0.0000 0.0000
							CHANNELS 3 Zrotation Yrotation Xrotation
							End Site
							{
								OFFSET 8.1826 0.0000 0.0000
							}
						}
					}
				}
			}
			JOINT head     
			{
				OFFSET 0.0000 35.2030 0.0000
				CHANNELS 3 Zrotation Yrotation Xrotation
				End Site
				{
					OFFSET 0.0000 11.7343 0.0000
				}
			}
		}
		JOINT rfemur   
		{
			OFFSET -8.2817 0.0000 0.0000
			CHANNELS 3 Zrotation Yrotation Xrotation
			JOINT rtibia   
			{
				OFFSET 0.0000 -43.3627 0.0000
				CHANNELS 3 Zrotation Yrotation Xrotation
				JOINT rfoot    
				{
					OFFSET 0.0000 -38.2947 0.0000
					CHANNELS 3 Zrotation Yrotation Xrotation
					JOINT rtoes    
					{
						OFFSET 0.0000 0.0000 16.6054
						CHANNELS 3 Zrotation Yrotation Xrotation
						End Site
						{
							OFFSET 0.0000 0.0000 5.5351
						}
					}
				}
			}
		}
		JOINT lfemur   
		{
			OFFSET 8.2817 0.0000 0.0000
			CHANNELS 3 Zrotation Yrotation Xrotation
			JOINT ltibia   
			{
				OFFSET 0.0000 -43.3627 0.0000
				CHANNELS 3 Zrotation Yrotation Xrotation
				JOINT lfoot    
				{
					OFFSET 0.0000 -38.2947 0.0000
					CHANNELS 3 Zrotation Yrotation Xrotation
					JOINT ltoes    
					{
						OFFSET 0.0000 0.0000 16.6054
						CHANNELS 3 Zrotation Yrotation Xrotation
						End Site
						{
							OFFSET 0.0000 0.0000 5.5351
						}
					}
				}
			}
		}
	}
}
MOTION
Frames: 22
Frame Time: .0333333
-136.03 76.808 -7.1832 -45.1296 86.5865 -28.07 0 -0 0 -4.24331 3.14918 22.0202 19.2098 -7.78676 -4.42928e-05 53.5359 -0.331942 9.26578 -0.000162515 89.7228 -0.000162355 -3.13911 5.15469 -0.141302 -21.9443 15.5099 -0.00018806 -56.1653 24.3035 6.78256 -1.60333e-06 -84.3399 1.45223e-06 1.30683 1.97542 0.0225005 -2.20512 0.60551 -15.4543 -2.2976 -13.2807 -11.082 -0 -0 52.8667 -3.54082e-06 10.392 -7.14257 -1.3063 -3.90803e-06 -75.0981 -5.01611 10.0945 -58.6542 -0 -0 55.6911 -5.40697e-06 10.4794 -3.11462 -0.575792 7.04738e-08 -15.049 
-135.11 76.741 -7.3057 -45.6289 86.4226 -28.7843 0 -0 0 -4.46052 3.18617 21.8862 19.3272 -7.74663 -2.79078e-05 53.8176 -0.373403 9.28148 -4.08004e-05 89.2291 -4.10761e-05 -2.97704 5.0845 -0.132202 -21.9936 15.4982 -0.000150296 -56.1905 24.1366 6.51584 0 -84.0817 0 1.31042 2.00165 0.0228999 -2.08069 0.751093 -15.3278 -2.55277 -13.2159 -10.8134 -0 -0 53.6877 3.41539e-06 10.5454 -5.81757 -1.081 -3.46158e-06 -76.2519 -4.80614 10.0765 -58.1575 -0 -0 56.5723 1.15054e-06 10.7523 -4.10943 -0.7796 -1.24572e-06 -14.8864 
-134.2 76.682 -7.426 -45.9069 86.2267 -29.2664 0 -0 0 -4.67783 3.2328 21.7519 19.4467 -7.70245 3.15138e-05 54.1002 -0.414628 9.29716 -1.41485e-05 88.7593 -1.38466e-05 -2.80257 5.01863 -0.122804 -22.0447 15.4926 -0.000155249 -56.2257 23.9526 6.20979 -2.95689e-06 -83.8361 2.65461e-06 1.32853 2.03536 0.0235998 -1.94714 0.891187 -15.2355 -2.7782 -13.1306 -10.5968 -0 -0 54.5368 4.45222e-06 10.5885 -4.50152 -0.840593 4.12988e-07 -77.0493 -4.57749 10.036 -57.6368 -0 -0 57.4087 -4.48198e-06 11.0699 -5.05473 -0.987618 -2.04317e-06 -14.933 
-133.3 76.632 -7.544 -45.9623 86.0465 -29.5215 0 -0 0 -4.89942 3.28765 21.6176 19.5683 -7.65668 -3.48942e-05 54.3861 -0.452438 9.31592 -0 88.2547 -0 -2.61892 4.95884 -0.113401 -22.1047 15.4824 -6.64419e-05 -56.2564 23.7618 5.8631 -2.47847e-06 -83.6166 2.21666e-06 1.36318 2.07695 0.0246999 -1.80313 1.02854 -15.1796 -2.97475 -13.0395 -10.4412 -0 -0 55.4186 -2.6318e-06 10.5271 -3.16849 -0.588493 2.21196e-06 -77.5338 -4.33854 9.97487 -57.0978 -0 -0 58.1976 2.87529e-06 11.4228 -5.94675 -1.19921 -2.0874e-06 -15.1156 
-132.41 76.591 -7.6595 -45.8133 85.8564 -29.5618 0 -0 0 -5.12864 3.35392 21.489 19.6902 -7.59675 -3.20575e-06 54.6784 -0.506804 9.32305 -6.1188e-06 87.7129 -5.88009e-06 -2.42726 4.90675 -0.103997 -22.153 15.4825 -5.55002e-05 -56.294 23.5315 5.50316 2.13961e-06 -83.4009 -2.40145e-06 1.41816 2.1191 0.0262011 -1.64853 1.16189 -15.1593 -3.14444 -12.9477 -10.3484 -0 -0 56.3357 7.04018e-06 10.3675 -1.80503 -0.330206 3.09191e-06 -77.7269 -4.10051 9.90173 -56.5451 -0 -0 58.9338 -3.72638e-06 11.7963 -6.79049 -1.41451 4.38817e-06 -15.3575 
-131.54 76.56 -7.7734 -45.515 85.6596 -29.4364 0 -0 0 -5.36829 3.42217 21.361 19.8083 -7.53741 6.79603e-05 54.9759 -0.553708 9.33886 -0 87.1574 -0 -2.23705 4.86403 -0.0950027 -22.2177 15.4629 -3.5241e-05 -56.3085 23.3044 5.11164 2.07961e-06 -83.221 -2.34148e-06 1.48926 2.16676 0.0281985 -1.48566 1.29905 -15.1688 -3.29066 -12.8762 -10.3302 -0 -0 57.292 1.83088e-07 10.1178 -0.361904 -0.0646006 9.65663e-08 -77.7018 -3.87378 9.81718 -55.9861 -0 -0 59.6103 3.2607e-05 12.1802 -7.59135 -1.63342 -4.81743e-06 -15.5997 
-130.68 76.54 -7.8854 -45.077 85.4815 -29.1639 0 -0 0 -5.61728 3.49391 21.2414 19.9228 -7.46493 6.6244e-06 55.2823 -0.613778 9.34787 -3.66276e-06 86.5652 -3.44923e-06 -2.05013 4.82988 -0.0865013 -22.2713 15.4479 0.000107481 -56.3166 23.0336 4.72361 3.2638e-07 -83.0417 -9.26342e-07 1.57794 2.21132 0.0305009 -1.31819 1.43857 -15.204 -3.41349 -12.8307 -10.3823 -0 -0 58.2831 -4.83026e-06 9.77902 1.16944 0.201493 -6.13752e-07 -77.4494 -3.66674 9.7329 -55.4157 -0 -0 60.2229 5.3307e-06 12.5604 -8.36084 -1.8556 -6.39833e-06 -15.7933 
-129.84 76.53 -7.9971 -44.5202 85.3203 -28.7591 0 -0 0 -5.87714 3.55887 21.1245 20.0298 -7.39332 -2.97159e-05 55.5949 -0.663649 9.37133 -8.12601e-06 85.9264 -8.28235e-06 -1.87653 4.80606 -0.0788001 -22.3409 15.4073 8.84584e-05 -56.2952 22.7658 4.31756 0 -82.8877 0 1.67739 2.25805 0.0331005 -1.15082 1.58718 -15.2558 -3.51861 -12.8287 -10.5135 -0 -0 59.3097 -4.15588e-06 9.35024 2.82405 0.464801 -3.19814e-06 -77.0206 -3.48936 9.65007 -54.8391 -0 -0 60.7623 -9.26325e-06 12.9288 -9.10596 -2.08072 4.83003e-07 -15.9143 
-129.01 76.531 -8.1082 -43.8996 85.1671 -28.2794 0 -0 0 -6.14303 3.61529 21.0137 20.1266 -7.31505 1.98125e-05 55.9146 -0.713954 9.40157 -3.02688e-06 85.2538 -3.28853e-06 -1.71774 4.79099 -0.071902 -22.408 15.3632 -5.59962e-06 -56.255 22.4635 3.92444 1.5774e-06 -82.7399 -1.79125e-06 1.78533 2.3018 0.0358983 -0.989497 1.74367 -15.3149 -3.60422 -12.872 -10.7168 -0 -0 60.3626 -3.69758e-06 8.81858 4.59091 0.7114 3.76846e-06 -76.3632 -3.34467 9.57802 -54.25 -0 -0 61.2276 1.2029e-05 13.2736 -9.83634 -2.30779 -6.52943e-07 -15.9566 
-128.21 76.543 -8.2196 -43.2395 85.0128 -27.7469 0 -0 0 -6.41152 3.65756 20.9111 20.2132 -7.23496 9.97561e-06 56.2372 -0.756149 9.44767 -4.26816e-06 84.5416 -4.69553e-06 -1.57777 4.78374 -0.0658983 -22.4759 15.3084 4.70731e-05 -56.1917 22.1383 3.54315 -2.48479e-06 -82.5883 2.18233e-06 1.89607 2.34426 0.0387993 -0.840295 1.90936 -15.3729 -3.67198 -12.968 -10.9918 -0 -0 61.4366 -1.15591e-06 8.16584 6.45673 0.9244 -8.65464e-06 -75.4352 -3.23614 9.52034 -53.6485 -0 -0 61.6156 9.44068e-05 13.5906 -10.5549 -2.53573 1.0368e-05 -15.9285 
-127.41 76.566 -8.3316 -42.5454 84.8909 -27.1766 0 -0 0 -6.67817 3.68172 20.8154 20.2891 -7.15466 1.19763e-05 56.558 -0.787005 9.51256 -5.29719e-06 83.7801 -5.45367e-06 -1.45709 4.78326 -0.0609002 -22.5453 15.2454 0.000122542 -56.1056 21.7862 3.18201 -1.723e-06 -82.4293 1.5091e-06 2.00435 2.38686 0.0417984 -0.708798 2.08361 -15.4242 -3.72147 -13.1176 -11.333 -0 -0 62.5272 -6.89563e-07 7.36655 8.38172 1.07958 -2.44126e-06 -74.1676 -3.16358 9.48109 -53.0291 -0 -0 61.9258 -3.56889e-05 13.877 -11.2628 -2.76239 -2.12086e-06 -15.8537 
-126.63 76.598 -8.4442 -41.8678 84.7762 -26.617 0 -0 0 -6.93531 3.68533 20.7313 20.3559 -7.07444 -2.64241e-05 56.873 -0.806842 9.59756 -2.31469e-06 82.9804 -2.61712e-06 -1.35219 4.78676 -0.0565001 -22.611 15.1799 7.61816e-05 -56.0016 21.4001 2.85051 2.08336e-06 -82.2518 -2.38592e-06 2.10553 2.4313 0.0447003 -0.60059 2.26274 -15.4639 -3.74904 -13.3192 -11.7353 -0 -0 63.627 -3.24781e-06 6.39156 10.3022 1.1477 -1.80436e-06 -72.4717 -3.12279 9.46255 -52.3897 -0 -0 62.1618 -7.32986e-05 14.1293 -11.9576 -2.98546 -7.50735e-06 -15.7598 
-125.86 76.64 -8.5584 -41.159 84.685 -26.0249 0 -0 0 -7.18324 3.66606 20.6545 20.4123 -7.00287 4.15006e-05 57.1741 -0.803535 9.71455 -2.04875e-06 82.1314 -2.35132e-06 -1.26387 4.79514 -0.0528984 -22.6854 15.0946 -3.6504e-05 -55.8726 21.0102 2.53231 8.39995e-07 -82.0852 -1.42455e-06 2.19532 2.48213 0.0476012 -0.517805 2.44594 -15.489 -3.75844 -13.572 -12.1971 -0 -0 64.7349 -1.96419e-06 5.21531 12.1464 1.10029 1.7246e-06 -70.3002 -3.11422 9.46496 -51.7313 -0 -0 62.328 -3.37514e-05 14.351 -12.6318 -3.20236 3.28545e-06 -15.675 
-125.11 76.69 -8.6731 -40.5005 84.6012 -25.4825 0 -0 0 -7.4121 3.62458 20.592 20.4628 -6.93344 3.38454e-05 57.4574 -0.790274 9.85057 -0 81.249 -0 -1.18044 4.80415 -0.0494979 -22.7498 15.0139 -0.000147331 -55.7333 20.5803 2.25424 0 -81.8895 0 2.27233 2.53964 0.0504011 -0.463797 2.62619 -15.5008 -3.74261 -13.8654 -12.7079 -0 -0 65.8439 5.84007e-06 3.81876 13.815 0.913101 1.0932e-06 -67.5874 -3.12764 9.48821 -51.0503 -0 -0 62.4317 9.07788e-05 14.5427 -13.2801 -3.41043 1.13595e-05 -15.6248 
-124.36 76.748 -8.7882 -39.9001 84.522 -24.9986 0 -0 0 -7.6172 3.56179 20.5446 20.51 -6.86616 1.55123e-05 57.7171 -0.770534 10.0007 -0 80.3455 -0 -1.09371 4.81173 -0.046 -22.8044 14.9376 3.58995e-05 -55.588 20.1116 2.01902 1.36321e-06 -81.6729 -1.57722e-06 2.33566 2.60743 0.0532024 -0.43901 2.79868 -15.5028 -3.69863 -14.1941 -13.2678 -0 -0 66.9513 -1.04769e-05 2.19937 15.2135 0.577499 -9.57069e-07 -64.3535 -3.15712 9.52987 -50.3467 -0 -0 62.4811 -5.50429e-06 14.7093 -13.8967 -3.60759 1.1803e-05 -15.6244 
-123.62 76.813 -8.9038 -39.3353 84.4567 -24.552 0 -0 0 -7.79902 3.47909 20.5102 20.5559 -6.80823 6.27972e-05 57.9503 -0.738162 10.1723 -0 79.4101 -0 -1.00179 4.81936 -0.042199 -22.8558 14.8516 0.000103854 -55.4334 19.6272 1.81251 7.55432e-07 -81.4498 -1.34018e-06 2.38518 2.68764 0.0560002 -0.441103 2.96024 -15.4972 -3.62778 -14.549 -13.8758 -0 -0 68.0571 9.7237e-07 0.375994 16.2603 0.105299 -1.34187e-07 -60.6515 -3.19916 9.58689 -49.6279 -0 -0 62.4849 2.86947e-05 14.8536 -14.4744 -3.79259 1.00074e-05 -15.6776 
-122.89 76.885 -9.019 -38.8283 84.4026 -24.1662 0 -0 0 -7.95341 3.37889 20.4921 20.6044 -6.75659 3.19971e-05 58.1538 -0.702906 10.3525 -1.3494e-06 78.4602 -1.65278e-06 -0.896206 4.82534 -0.0378 -22.8978 14.7643 6.80446e-06 -55.2758 19.1199 1.64192 0 -81.2075 0 2.42354 2.78113 0.0588018 -0.467489 3.10626 -15.4906 -3.52523 -14.9207 -14.5312 -0 -0 69.1552 7.21909e-06 -1.60823 16.8802 -0.467095 1.24171e-06 -56.5853 -3.24661 9.6555 -48.8965 -0 -0 62.4478 -2.00082e-05 14.9804 -15.0126 -3.96495 1.28998e-05 -15.7768 
-122.17 76.962 -9.1331 -38.4114 84.3467 -23.8672 0 -0 0 -8.07789 3.26349 20.488 20.6565 -6.71093 2.72279e-05 58.327 -0.670409 10.535 -1.74604e-06 77.5053 -2.17546e-06 -0.772898 4.83044 -0.0325996 -22.93 14.6731 -3.07228e-05 -55.1166 18.5899 1.5083 -1.46214e-06 -80.9653 1.24803e-06 2.45389 2.8878 0.0619003 -0.514405 3.23363 -15.4907 -3.38803 -15.2983 -15.2345 -0 -0 70.2417 -1.22775e-05 -3.68667 17.0344 -1.08131 5.08787e-08 -52.2848 -3.29401 9.73177 -48.1582 -0 -0 62.3789 -4.75464e-05 15.0941 -15.508 -4.12458 -5.4227e-06 -15.9081 
-121.47 77.045 -9.2457 -38.0691 84.3075 -23.642 0 -0 0 -8.17344 3.13574 20.4972 20.7143 -6.6741 -1.79612e-05 58.4703 -0.64187 10.7168 -1.60644e-06 76.5405 -2.03629e-06 -0.633805 4.83642 -0.0268005 -22.9533 14.5724 -1.83925e-05 -54.9566 18.0483 1.40471 0 -80.7224 0 2.47955 3.00629 0.0651014 -0.576198 3.34103 -15.5016 -3.21496 -15.6692 -15.9898 -0 -0 71.3083 -1.39119e-05 -5.77433 16.7077 -1.6652 -4.57312e-06 -47.8815 -3.33819 9.81214 -47.4201 -0 -0 62.2837 7.30783e-05 15.196 -15.9646 -4.27271 -5.26754e-06 -16.0512 
-120.77 77.133 -9.3552 -37.8424 84.2623 -23.5244 0 -0 0 -8.23625 2.99738 20.5196 20.7769 -6.63894 -2.47709e-05 58.5907 -0.631976 10.8799 -7.43007e-07 75.585 -9.5815e-07 -0.474696 4.84336 -0.0200996 -22.9631 14.4702 9.90654e-06 -54.8006 17.4848 1.33834 6.49314e-07 -80.4842 -1.23447e-06 2.50579 3.13533 0.0686 -0.648573 3.42766 -15.5286 -3.00001 -16.0226 -16.7992 -0 -0 72.3438 3.74551e-05 -7.7825 15.9312 -2.14849 -1.26761e-06 -43.5542 -3.3731 9.89403 -46.6887 -0 -0 62.1637 -6.71696e-05 15.2903 -16.3883 -4.41056 -1.11036e-05 -16.1863 
-120.09 77.226 -9.4611 -37.7251 84.2239 -23.5075 0 -0 0 -8.26828 2.84983 20.5502 20.8442 -6.60885 -2.94747e-05 58.6878 -0.639233 11.0234 -0 74.6342 -0 -0.304498 4.85474 -0.0129 -22.9626 14.3582 6.89907e-05 -54.6441 16.915 1.2995 0 -80.2553 0 2.53645 3.2709 0.0723983 -0.7252 3.49544 -15.5771 -2.7425 -16.3497 -17.6681 -0 -0 73.3414 -5.63558e-05 -9.62526 14.7626 -2.47446 -1.80234e-05 -39.4031 -3.39835 9.975 -45.9708 -0 -0 62.0216 -0.0001439 15.3775 -16.7814 -4.53977 -1.61402e-06 -16.296 
-119.42 77.323 -9.5629 -37.7223 84.188 -23.5914 0 -0 0 -8.27094 2.69391 20.5887 20.9142 -6.58191 -2.56046e-05 58.771 -0.668297 11.1412 -9.11398e-07 73.6883 -1.21634e-06 -0.129803 4.87266 -0.00550016 -22.9528 14.2388 -2.4029e-05 -54.4905 16.338 1.28713 0 -80.0533 0 2.57561 3.40944 0.0767005 -0.800109 3.54761 -15.6461 -2.44162 -16.6412 -18.6 -0 -0 74.2881 -8.6191e-05 -11.2316 13.284 -2.61247 -1.44311e-05 -35.5385 -3.41293 10.054 -45.2702 -0 -0 61.8589 -4.67574e-05 15.4575 -17.1511 -4.66181 3.08641e-06 -16.3711 
